<svg width="70" height="71" fill="none" xmlns="http://www.w3.org/2000/svg"><rect y=".563" width="70" height="70" rx="10" fill="#fff"/><g clip-path="url(#clip0)"><path d="M45.241 29.67v-4.73c1.213-.54 2.156-1.891 2.156-3.242v-.136c-.135-2.027-1.752-3.648-3.773-3.648h-.135a3.628 3.628 0 00-3.638 3.648v.136c0 1.351.809 2.702 2.156 3.243v4.73c-1.752.27-3.503 1.08-4.986 2.162L24.085 21.698c.135-.27.135-.676.135-1.081 0-2.298-1.887-4.19-4.043-4.19-2.29.136-4.177 2.027-4.177 4.19 0 2.297 1.887 4.189 4.043 4.189.673 0 1.347-.135 2.02-.54l12.802 10c-2.29 3.513-2.29 8.242.135 11.756l-3.908 3.919c-.27-.135-.674-.135-.943-.135-1.887 0-3.369 1.486-3.369 3.378 0 1.892 1.482 3.379 3.369 3.379 1.886 0 3.369-1.487 3.369-3.379 0-.27 0-.676-.135-.946l3.908-3.919c4.581 3.514 11.05 2.703 14.553-1.892 3.503-4.594 2.695-11.08-1.887-14.594-1.347-1.081-2.964-1.892-4.716-2.162zm-1.617 15.676c-2.964 0-5.39-2.432-5.39-5.405 0-2.973 2.426-5.406 5.39-5.406 2.965 0 5.39 2.433 5.39 5.406s-2.425 5.405-5.39 5.405z" fill="#FF7A59"/></g><defs><clipPath id="clip0"><path fill="#fff" transform="translate(16 16.563)" d="M0 0h38v40H0z"/></clipPath></defs></svg>