<svg width="670" height="438" fill="none" xmlns="http://www.w3.org/2000/svg"><path d="M523.406 1.077h130.345c8.174 0 14.801 6.631 14.801 14.81v29.144H523.406V1.077z" fill="#F1F1F1" stroke="#7C8FAD"/><path d="M525.316 1.077H380.17v43.954h145.146V1.077z" fill="#F1F1F1" stroke="#7C8FAD"/><path d="M525.316 45.031H380.17v43.954h145.146V45.031z" fill="#fff" stroke="#7C8FAD"/><path d="M668.552 45.031H523.406v43.954h145.146V45.031zm0 43.954H523.406v42.998h145.146V88.985z" fill="#fff" stroke="#7C8FAD"/><path d="M525.316 88.985H380.17v42.998h145.146V88.985zm0 42.998H380.17v43.954h145.146v-43.954z" fill="#fff" stroke="#7C8FAD"/><path d="M668.552 131.983H523.406v43.954h145.146v-43.954zm0 43.954H523.406v42.998h145.146v-42.998z" fill="#fff" stroke="#7C8FAD"/><path d="M525.316 175.937H380.17v42.998h145.146v-42.998zm0 42.998H380.17v43.954h145.146v-43.954z" fill="#fff" stroke="#7C8FAD"/><path d="M668.552 218.935H523.406v43.954h145.146v-43.954zm0 43.954H523.406v43.953h145.146v-43.953z" fill="#fff" stroke="#7C8FAD"/><path d="M525.316 262.889H380.17v43.953h145.146v-43.953z" fill="#fff" stroke="#7C8FAD"/><path d="M668.552 305.887H523.406v43.954h145.146v-43.954z" fill="#fff" stroke="#7C8FAD"/><path d="M525.316 305.887H380.17v43.954h145.146v-43.954zm0 43.954H380.17v43.954h145.146v-43.954z" fill="#fff" stroke="#7C8FAD"/><path d="M668.552 349.841H523.406v43.954h145.146v-43.954z" fill="#fff" stroke="#7C8FAD"/><path d="M523.406 392.839h145.146v29.143c0 8.179-6.627 14.811-14.801 14.811H523.406v-43.954z" fill="#fff" stroke="#7C8FAD"/><path d="M525.316 392.839H380.17v43.954h145.146v-43.954z" fill="#fff" stroke="#7C8FAD"/><path d="M236.934 1.077H91.788v43.954h145.146V1.077z" fill="#F1F1F1" stroke="#7C8FAD"/><path d="M380.17 1.077H235.024v43.954H380.17V1.077z" fill="#F1F1F1" stroke="#7C8FAD"/><path d="M236.934 45.031H91.788V88.03h145.146V45.032z" fill="#fff" stroke="#7C8FAD"/><path d="M380.17 45.031H235.024V88.03H380.17V45.032z" fill="#fff" stroke="#7C8FAD"/><path d="M236.934 88.03H91.788v43.953h145.146V88.029z" fill="#fff" stroke="#7C8FAD"/><path d="M380.17 88.03H235.024v43.953H380.17V88.029zm-143.236 43.953H91.788v42.998h145.146v-42.998z" fill="#fff" stroke="#7C8FAD"/><path d="M380.17 131.983H235.024v42.998H380.17v-42.998zm-143.236 42.998H91.788v43.954h145.146v-43.954z" fill="#fff" stroke="#7C8FAD"/><path d="M380.17 174.981H235.024v43.954H380.17v-43.954zm-143.236 43.954H91.788v43.954h145.146v-43.954z" fill="#fff" stroke="#7C8FAD"/><path d="M380.17 218.935H235.024v43.954H380.17v-43.954z" fill="#fff" stroke="#7C8FAD"/><path d="M236.934 261.933H91.788v43.954h145.146v-43.954z" fill="#fff" stroke="#7C8FAD"/><path d="M380.17 261.933H235.024v43.954H380.17v-43.954zm-143.236 43.954H91.788v43.954h145.146v-43.954z" fill="#fff" stroke="#7C8FAD"/><path d="M380.17 305.887H235.024v43.954H380.17v-43.954zm-143.236 43.954H91.788v42.998h145.146v-42.998z" fill="#fff" stroke="#7C8FAD"/><path d="M380.17 349.841H235.024v42.998H380.17v-42.998zm-143.236 42.998H91.788v43.954h145.146v-43.954z" fill="#fff" stroke="#7C8FAD"/><path d="M235.024 392.839H380.17v40.609a3.344 3.344 0 01-3.342 3.345H235.024v-43.954z" fill="#fff" stroke="#7C8FAD"/><path d="M90.833 1.077H1.072v43.954h89.76V1.077z" fill="#EDF3FD" stroke="#7C8FAD"/><path d="M90.833 45.031H1.072V88.03h89.76V45.032z" fill="#F0F0F0" stroke="#7C8FAD"/><path d="M90.833 88.03H1.072v43.953h89.76V88.029zm0 43.953H1.072v42.998h89.76v-42.998zm0 42.998H1.072v43.954h89.76v-43.954zm0 43.954H1.072v43.954h89.76v-43.954z" fill="#F0F0F0" stroke="#7C8FAD"/><path d="M90.833 261.933H1.072v43.954h89.76v-43.954zm0 43.954H1.072v43.954h89.76v-43.954zm0 43.954H1.072v42.998h89.76v-42.998zM1.072 392.839h89.76v43.954h-74.96c-8.173 0-14.8-6.632-14.8-14.811v-29.143z" fill="#F0F0F0" stroke="#7C8FAD"/></svg>