<svg width="496" height="283" fill="none" xmlns="http://www.w3.org/2000/svg"><path d="M369.323 251.914c69.564 0 125.957-56.393 125.957-125.957S438.887 0 369.323 0 243.366 56.393 243.366 125.957s56.393 125.957 125.957 125.957z" fill="#4B57C5"/><path d="M55.272 163.512c30.526 0 55.272-24.746 55.272-55.272S85.798 52.968 55.272 52.968 0 77.714 0 108.24s24.746 55.272 55.272 55.272z" fill="#E41B50"/><path d="M164.2 282.591c23.481 0 42.517-19.035 42.517-42.517 0-23.481-19.036-42.517-42.517-42.517-23.482 0-42.517 19.036-42.517 42.517 0 23.482 19.035 42.517 42.517 42.517z" fill="#B0B8FC"/><path d="M119.051 206.606c16.731 0 30.293-13.562 30.293-30.293s-13.562-30.293-30.293-30.293-30.293 13.562-30.293 30.293 13.562 30.293 30.293 30.293z" fill="#34AD78"/><path d="M241.189 239.011c11.447 0 20.727-9.28 20.727-20.727 0-11.447-9.28-20.727-20.727-20.727-11.447 0-20.727 9.28-20.727 20.727 0 11.447 9.28 20.727 20.727 20.727z" fill="#FB6987"/><path d="M138.116 117.327c11.447 0 20.727-9.28 20.727-20.727 0-11.447-9.28-20.727-20.727-20.727-11.447 0-20.727 9.28-20.727 20.727 0 11.447 9.28 20.727 20.727 20.727z" fill="#75E1B2"/><path d="M152.843 149.645c8.512 0 15.412-6.9 15.412-15.412s-6.9-15.412-15.412-15.412-15.412 6.9-15.412 15.412 6.9 15.412 15.412 15.412z" fill="#5DD5F6"/><path d="M206.128 200.382c20.546 0 37.202-16.656 37.202-37.202s-16.656-37.202-37.202-37.202-37.202 16.656-37.202 37.202 16.656 37.202 37.202 37.202z" fill="#707EFA"/><path d="M191.495 118.15c8.512 0 15.412-6.9 15.412-15.412s-6.9-15.412-15.412-15.412-15.412 6.9-15.412 15.412 6.9 15.412 15.412 15.412z" fill="#FFB85C"/><path d="M361.807 118.216v10.581c0 1.207-.272 2.266-.817 3.176-.536.909-1.316 1.607-2.337 2.091-1.022.485-2.229.727-3.624.727-2.102 0-3.735-.537-4.898-1.61-1.164-1.081-1.745-2.558-1.745-4.429v-10.536h3.456v10.01c0 1.26.253 2.185.76 2.774s1.346.883 2.517.883c1.133 0 1.953-.294 2.46-.883.515-.597.772-1.529.772-2.796v-9.988h3.456zm13.656 11.811c0 1.476-.533 2.639-1.6 3.489-1.058.85-2.535 1.275-4.429 1.275-1.744 0-3.288-.328-4.63-.984v-3.221c1.104.492 2.036.839 2.796 1.04.768.201 1.469.302 2.103.302.76 0 1.342-.145 1.745-.436.41-.291.615-.723.615-1.297 0-.321-.09-.604-.269-.85-.179-.254-.443-.496-.794-.727-.343-.232-1.047-.601-2.114-1.108-.999-.469-1.748-.92-2.248-1.353a5.08 5.08 0 01-1.196-1.51c-.299-.574-.448-1.245-.448-2.013 0-1.446.489-2.583 1.465-3.411.985-.828 2.342-1.242 4.071-1.242.85 0 1.659.101 2.427.302.776.202 1.585.485 2.427.85l-1.118 2.696c-.872-.358-1.596-.608-2.17-.75a6.926 6.926 0 00-1.677-.212c-.657 0-1.16.153-1.51.459-.351.305-.526.704-.526 1.196 0 .306.071.574.213.805.141.224.365.444.671.66.313.209 1.047.589 2.203 1.141 1.528.731 2.576 1.465 3.143 2.203.566.731.85 1.63.85 2.696zm12.973 4.541l-1.185-3.893h-5.961l-1.186 3.893h-3.735l5.771-16.419h4.238l5.794 16.419h-3.736zm-2.013-6.8a2679.034 2679.034 0 01-1.856-5.984 17.773 17.773 0 01-.291-1.096c-.246.954-.951 3.314-2.114 7.08h4.261zm-364.536-24.08c-1.305 0-2.315.492-3.03 1.476-.716.977-1.074 2.342-1.074 4.094 0 3.646 1.368 5.469 4.104 5.469 1.149 0 2.54-.287 4.172-.861v2.908c-1.342.559-2.84.838-4.496.838-2.378 0-4.198-.719-5.458-2.158-1.26-1.447-1.89-3.519-1.89-6.219 0-1.7.31-3.187.928-4.462.62-1.282 1.506-2.263 2.662-2.941 1.163-.686 2.524-1.029 4.082-1.029 1.588 0 3.184.384 4.787 1.152l-1.118 2.818a18.657 18.657 0 00-1.846-.761 5.51 5.51 0 00-1.823-.324zm15.333 13.701l-.66-1.7h-.089c-.574.723-1.166 1.226-1.778 1.51-.604.275-1.394.413-2.37.413-1.201 0-2.148-.343-2.842-1.029-.686-.685-1.029-1.662-1.029-2.93 0-1.327.463-2.304 1.387-2.93.932-.634 2.334-.984 4.206-1.051l2.17-.067v-.548c0-1.268-.65-1.902-1.947-1.902-.999 0-2.173.302-3.523.906l-1.13-2.304c1.44-.753 3.035-1.129 4.787-1.129 1.678 0 2.964.365 3.859 1.096.895.73 1.342 1.841 1.342 3.333v8.332h-2.382zm-1.006-5.794l-1.32.045c-.991.03-1.73.209-2.214.537-.485.328-.727.828-.727 1.499 0 .961.552 1.442 1.655 1.442.79 0 1.42-.227 1.89-.682.478-.455.716-1.059.716-1.812v-1.029zm18.454 5.794h-3.411v-7.304c0-.902-.16-1.576-.481-2.024-.32-.455-.831-.682-1.532-.682-.955 0-1.644.321-2.07.962-.424.634-.637 1.689-.637 3.165v5.883h-3.411v-12.504h2.606l.459 1.599h.19a3.57 3.57 0 011.565-1.364c.671-.313 1.432-.47 2.282-.47 1.454 0 2.557.395 3.31 1.186.754.782 1.13 1.916 1.13 3.399v8.154zm11.452 0l-.66-1.7h-.089c-.574.723-1.167 1.226-1.778 1.51-.604.275-1.394.413-2.371.413-1.2 0-2.147-.343-2.84-1.029-.687-.685-1.03-1.662-1.03-2.93 0-1.327.463-2.304 1.387-2.93.932-.634 2.334-.984 4.205-1.051l2.17-.067v-.548c0-1.268-.649-1.902-1.946-1.902-1 0-2.173.302-3.523.906l-1.13-2.304c1.44-.753 3.035-1.129 4.787-1.129 1.678 0 2.964.365 3.859 1.096.894.73 1.342 1.841 1.342 3.333v8.332H66.12zm-1.006-5.794l-1.32.045c-.991.03-1.73.209-2.214.537-.485.328-.727.828-.727 1.499 0 .961.552 1.442 1.655 1.442.79 0 1.42-.227 1.89-.682.477-.455.716-1.059.716-1.812v-1.029zm10.871 6.017c-1.469 0-2.625-.57-3.467-1.711-.835-1.141-1.253-2.721-1.253-4.742 0-2.05.425-3.646 1.275-4.787.858-1.148 2.036-1.722 3.534-1.722 1.574 0 2.774.611 3.602 1.834h.112c-.172-.932-.258-1.763-.258-2.494v-4.004h3.423v17.403h-2.617l-.66-1.622h-.146c-.775 1.23-1.957 1.845-3.545 1.845zm1.197-2.717c.872 0 1.51-.254 1.912-.761.41-.507.634-1.368.671-2.583v-.369c0-1.343-.209-2.304-.626-2.886-.41-.582-1.081-.872-2.013-.872-.761 0-1.353.324-1.778.973-.418.641-.627 1.577-.627 2.807s.213 2.155.638 2.774c.425.611 1.032.917 1.823.917zm17.279 2.494l-.66-1.7h-.089c-.574.723-1.167 1.226-1.778 1.51-.604.275-1.395.413-2.371.413-1.201 0-2.148-.343-2.841-1.029-.686-.685-1.029-1.662-1.029-2.93 0-1.327.462-2.304 1.387-2.93.932-.634 2.333-.984 4.205-1.051l2.17-.067v-.548c0-1.268-.649-1.902-1.946-1.902-1 0-2.174.302-3.523.906l-1.13-2.304c1.439-.753 3.035-1.129 4.787-1.129 1.677 0 2.964.365 3.858 1.096.895.73 1.342 1.841 1.342 3.333v8.332h-2.382zm-1.006-5.794l-1.32.045c-.992.03-1.73.209-2.215.537-.484.328-.727.828-.727 1.499 0 .961.552 1.442 1.656 1.442.79 0 1.42-.227 1.89-.682.477-.455.716-1.059.716-1.812v-1.029zm45.214 136.067h-2.558v-12.264h7.029v2.131h-4.471v3.162h4.161v2.122h-4.161v4.849zm11.903-9.555c.347 0 .635.026.864.076l-.193 2.399a2.925 2.925 0 00-.755-.084c-.816 0-1.454.21-1.912.629-.453.42-.68 1.007-.68 1.762v4.773h-2.558v-9.378h1.938l.377 1.577h.126a3.506 3.506 0 011.174-1.267 2.911 2.911 0 011.619-.487zm8.522 9.555l-.495-1.275h-.067c-.43.542-.875.919-1.333 1.132-.453.207-1.046.31-1.779.31-.9 0-1.61-.257-2.13-.771-.515-.515-.772-1.247-.772-2.198 0-.995.347-1.728 1.04-2.198.699-.475 1.751-.738 3.154-.788l1.627-.051v-.411c0-.95-.486-1.426-1.459-1.426-.749 0-1.63.227-2.642.68l-.848-1.728c1.08-.565 2.276-.847 3.591-.847 1.258 0 2.222.274 2.893.822.671.548 1.007 1.381 1.007 2.499v6.25h-1.787zm-.755-4.345l-.989.033c-.744.022-1.298.157-1.661.403-.364.246-.545.62-.545 1.124 0 .721.413 1.082 1.241 1.082.593 0 1.065-.171 1.418-.512.357-.341.536-.794.536-1.359v-.771zm13.841 4.345h-2.559v-5.478c0-.677-.12-1.183-.36-1.518-.241-.341-.624-.512-1.149-.512-.716 0-1.233.241-1.552.722-.319.475-.478 1.266-.478 2.373v4.413h-2.559v-9.378h1.955l.344 1.199h.142a2.678 2.678 0 011.175-1.023c.503-.235 1.073-.353 1.711-.353 1.09 0 1.918.297 2.483.89.564.587.847 1.437.847 2.55v6.115zm6.442.167c-2.919 0-4.379-1.602-4.379-4.806 0-1.594.397-2.81 1.191-3.649.794-.844 1.932-1.267 3.414-1.267 1.085 0 2.058.213 2.919.638l-.755 1.98a11.736 11.736 0 00-1.124-.395 3.535 3.535 0 00-1.04-.159c-1.331 0-1.996.945-1.996 2.835 0 1.834.665 2.751 1.996 2.751.492 0 .948-.064 1.368-.192a5.116 5.116 0 001.258-.621v2.189a4.095 4.095 0 01-1.258.545c-.42.101-.951.151-1.594.151zm8.916-7.901c-.542 0-.967.173-1.275.52-.307.341-.483.827-.528 1.459h3.59c-.011-.632-.176-1.118-.495-1.459-.319-.347-.749-.52-1.292-.52zm.361 7.901c-1.51 0-2.69-.416-3.54-1.25-.85-.833-1.275-2.013-1.275-3.539 0-1.572.392-2.785 1.175-3.641.788-.861 1.876-1.292 3.263-1.292 1.325 0 2.357.378 3.095 1.133s1.107 1.798 1.107 3.129v1.241h-6.048c.028.727.243 1.295.646 1.703.403.408.968.612 1.695.612.564 0 1.098-.059 1.602-.176a8.01 8.01 0 001.577-.562v1.98a5.953 5.953 0 01-1.435.495c-.509.111-1.129.167-1.862.167zm-81.063-67.451v-7.154h1.517v7.154h-1.517zm8.25 0h-1.492v-3.195c0-.395-.07-.69-.211-.886-.14-.199-.363-.299-.67-.299-.418 0-.719.141-.905.421-.186.277-.279.739-.279 1.385v2.574h-1.492v-5.471h1.14l.2.7h.083c.167-.264.395-.463.685-.597.294-.137.627-.205.999-.205.636 0 1.119.172 1.448.518.329.343.494.839.494 1.488v3.567zm3.269.098c-.643 0-1.149-.25-1.517-.749-.365-.499-.548-1.191-.548-2.075 0-.897.186-1.595.558-2.094.375-.502.89-.753 1.546-.753.688 0 1.213.267 1.575.802h.049a6.105 6.105 0 01-.112-1.091v-1.752h1.497v7.614h-1.145l-.289-.71h-.063c-.339.538-.856.808-1.551.808zm.523-1.189c.382 0 .661-.111.837-.333.179-.222.277-.599.294-1.13v-.162c0-.587-.092-1.008-.274-1.262-.18-.255-.473-.382-.881-.382a.88.88 0 00-.778.426c-.183.28-.274.69-.274 1.228s.093.943.279 1.213c.186.268.452.402.797.402zm4.022-5.794c0-.486.271-.729.813-.729.541 0 .812.243.812.729 0 .232-.069.413-.206.543-.133.128-.336.191-.606.191-.542 0-.813-.245-.813-.734zm1.556 6.885h-1.492v-5.471h1.492v5.471zm5.045 0l-.289-.744h-.039c-.251.316-.51.537-.778.661-.264.12-.61.181-1.037.181-.525 0-.94-.15-1.243-.451-.3-.3-.45-.727-.45-1.282 0-.58.202-1.008.607-1.282.407-.277 1.021-.43 1.839-.46l.95-.029v-.24c0-.554-.284-.831-.852-.831-.437 0-.951.132-1.541.396l-.494-1.008a4.437 4.437 0 012.094-.494c.734 0 1.297.16 1.688.479.392.32.587.806.587 1.458v3.646h-1.042zm-.44-2.535l-.578.02c-.433.013-.756.091-.968.235-.212.143-.319.362-.319.655 0 .421.242.631.725.631.345 0 .621-.099.827-.298.208-.199.313-.463.313-.793v-.45zm23.682-46.134v4.628c0 .529-.119.992-.357 1.39a2.295 2.295 0 01-1.023.915c-.447.212-.975.318-1.585.318-.92 0-1.634-.235-2.143-.704-.509-.473-.764-1.119-.764-1.938v-4.609h1.512v4.379c0 .551.111.956.333 1.213.222.258.589.387 1.101.387.496 0 .855-.129 1.077-.387.225-.261.337-.668.337-1.223v-4.369h1.512zm7.506 7.153h-1.722l-1.874-3.014-.641.46v2.554h-1.517v-7.153h1.517v3.273l.597-.842 1.937-2.431h1.684l-2.496 3.165 2.515 3.988zm26.608 26.046h2.838v3.709c-.46.15-.894.254-1.302.313a8.18 8.18 0 01-1.243.093c-1.079 0-1.905-.316-2.475-.949-.568-.636-.852-1.548-.852-2.735 0-1.155.33-2.055.989-2.701.662-.646 1.578-.969 2.749-.969.734 0 1.442.147 2.124.44l-.504 1.214a3.6 3.6 0 00-1.629-.392c-.656 0-1.181.22-1.576.661-.395.44-.592 1.032-.592 1.776 0 .776.158 1.37.475 1.781.319.408.783.612 1.389.612.317 0 .638-.033.964-.098v-1.493h-1.355v-1.262zm6.694-.494c-.317 0-.565.101-.744.303-.18.199-.282.483-.308.852h2.094c-.007-.369-.103-.653-.289-.852-.186-.202-.437-.303-.753-.303zm.21 4.609c-.881 0-1.569-.243-2.065-.729s-.744-1.174-.744-2.065c0-.917.229-1.624.685-2.123.46-.503 1.095-.754 1.904-.754.773 0 1.375.22 1.805.661.431.44.646 1.048.646 1.825v.724h-3.528c.017.424.142.755.377.993.235.238.564.357.988.357.33 0 .641-.034.935-.102.294-.069.6-.178.92-.328v1.155a3.45 3.45 0 01-.837.288 5.163 5.163 0 01-1.086.098zm6.498-5.671c.202 0 .37.015.504.044l-.113 1.399a1.734 1.734 0 00-.44-.048c-.476 0-.848.122-1.116.367-.264.244-.396.587-.396 1.027v2.784h-1.492v-5.47h1.13l.22.92h.074c.169-.307.398-.553.685-.739.29-.189.605-.284.944-.284zm6.395 5.573h-1.492v-3.195c0-.395-.067-.69-.201-.886-.13-.199-.337-.298-.621-.298-.382 0-.659.14-.832.421-.173.28-.259.742-.259 1.384v2.574h-1.493v-5.47h1.14l.201.699h.083c.147-.251.359-.446.636-.587.277-.143.596-.215.954-.215.819 0 1.374.267 1.664.802h.132c.147-.254.362-.451.646-.592.287-.14.61-.21.969-.21.62 0 1.088.16 1.404.48.32.316.48.825.48 1.526v3.567h-1.498v-3.195c0-.395-.066-.69-.2-.886-.131-.199-.338-.298-.622-.298-.365 0-.639.13-.822.391-.179.261-.269.676-.269 1.243v2.745zm8.421 0l-.289-.744h-.039c-.251.317-.51.537-.778.661-.264.121-.61.181-1.037.181-.525 0-.939-.15-1.243-.45-.3-.3-.45-.728-.45-1.282 0-.581.202-1.008.607-1.282.407-.277 1.021-.431 1.84-.46l.949-.029v-.24c0-.555-.284-.832-.852-.832-.437 0-.95.132-1.541.396l-.494-1.008a4.452 4.452 0 012.094-.494c.734 0 1.297.16 1.688.48.392.319.587.805.587 1.458v3.645h-1.042zm-.44-2.534l-.578.019c-.433.013-.756.092-.968.235-.212.144-.318.362-.318.656 0 .421.241.631.724.631.345 0 .621-.1.827-.299.208-.199.313-.463.313-.792v-.45zm8.073 2.534h-1.492v-3.195c0-.395-.07-.69-.21-.886-.141-.199-.364-.298-.671-.298-.417 0-.719.14-.905.421-.186.277-.279.739-.279 1.384v2.574h-1.492v-5.47h1.14l.2.699h.084c.166-.264.394-.463.685-.596a2.33 2.33 0 01.998-.206c.636 0 1.119.173 1.448.519.33.342.494.838.494 1.487v3.567zm.754-5.47h1.634l1.033 3.077c.088.268.148.584.181.95h.029a4.23 4.23 0 01.21-.95l1.013-3.077h1.6l-2.314 6.17c-.212.571-.516.998-.91 1.282a2.28 2.28 0 01-1.375.426c-.258 0-.511-.028-.759-.084v-1.184c.18.043.376.064.588.064.264 0 .494-.082.689-.245.199-.16.354-.403.465-.729l.088-.269-2.172-5.431zm-95.224-65.232c0 .646-.233 1.155-.7 1.527-.463.372-1.109.558-1.937.558-.764 0-1.439-.144-2.026-.43v-1.41c.483.215.89.367 1.223.455.336.088.643.132.92.132.333 0 .587-.064.763-.19.18-.128.27-.317.27-.568a.616.616 0 00-.118-.372 1.276 1.276 0 00-.347-.318c-.15-.1-.459-.263-.925-.485-.437-.205-.765-.403-.984-.592a2.22 2.22 0 01-.523-.66 1.88 1.88 0 01-.196-.88c0-.634.214-1.13.641-1.493.431-.363 1.024-.544 1.781-.544.372 0 .726.044 1.062.133.339.088.693.212 1.062.371l-.49 1.18a7.017 7.017 0 00-.949-.328 3.014 3.014 0 00-.734-.093c-.287 0-.507.067-.66.2a.661.661 0 00-.23.524c0 .134.031.251.093.352.062.098.16.194.293.29.137.09.459.257.964.498.669.32 1.127.641 1.375.964.248.32.372.713.372 1.18zm4.184 2.085c-.643 0-1.147-.234-1.512-.7h-.079c.053.457.079.721.079.793v2.216h-1.493v-7.878h1.214l.21.71h.069c.349-.542.866-.812 1.551-.812.646 0 1.151.249 1.517.748.365.499.548 1.193.548 2.08 0 .584-.087 1.091-.26 1.522-.169.43-.412.758-.729.983a1.873 1.873 0 01-1.115.338zm-.441-4.477c-.368 0-.638.114-.807.342-.17.225-.258.599-.264 1.121v.161c0 .587.086 1.008.259 1.262.176.255.453.382.832.382.668 0 1.003-.551 1.003-1.654 0-.538-.083-.941-.25-1.208-.163-.271-.42-.406-.773-.406zm7.252 4.379l-.289-.744h-.039c-.251.317-.511.537-.778.661-.264.12-.61.181-1.037.181-.526 0-.94-.15-1.243-.45-.3-.301-.45-.728-.45-1.282 0-.581.202-1.008.606-1.282.408-.278 1.021-.431 1.84-.46l.949-.03v-.239c0-.555-.283-.832-.851-.832-.437 0-.951.132-1.541.396l-.495-1.008a4.456 4.456 0 012.095-.494c.734 0 1.296.16 1.688.479.391.32.587.806.587 1.459v3.645h-1.042zm-.441-2.535l-.577.02c-.434.013-.757.09-.969.235-.212.143-.318.362-.318.655 0 .421.241.632.724.632.346 0 .622-.1.827-.299.209-.199.313-.463.313-.793v-.45zm2.961-4.35c0-.486.27-.73.812-.73.541 0 .812.244.812.73 0 .232-.068.413-.205.543-.134.128-.336.191-.607.191-.542 0-.812-.244-.812-.734zm1.556 6.885h-1.493v-5.471h1.493v5.471zm6.62 0h-1.492v-3.195c0-.395-.071-.69-.211-.886-.14-.199-.364-.298-.67-.298-.418 0-.719.14-.905.42-.186.278-.279.739-.279 1.385v2.574h-1.493v-5.471h1.14l.201.7h.083c.167-.264.395-.463.685-.597.294-.137.627-.205.998-.205.637 0 1.119.173 1.449.518.329.343.494.839.494 1.488v3.567zm37.172.004v4.629c0 .528-.119.992-.357 1.39a2.306 2.306 0 01-1.023.915c-.447.212-.975.318-1.585.318-.92 0-1.635-.235-2.144-.705-.508-.473-.763-1.119-.763-1.938v-4.609h1.512v4.379c0 .552.111.956.333 1.214.222.258.589.386 1.101.386.496 0 .854-.128 1.076-.386.225-.261.338-.669.338-1.223v-4.37h1.512zm6.131 7.154l-.519-1.703h-2.608l-.518 1.703h-1.635l2.525-7.183h1.855l2.534 7.183h-1.634zm-.881-2.975l-.812-2.618a7.746 7.746 0 01-.127-.48c-.108.418-.416 1.45-.925 3.098h1.864zm7.54 2.975h-4.12v-7.154h4.12v1.243h-2.603v1.571h2.422v1.242h-2.422v1.845h2.603v1.253zm27.197 107.372h2.227c1.014 0 1.75.145 2.206.435.46.287.69.746.69 1.375 0 .427-.101.778-.303 1.052a1.192 1.192 0 01-.798.494v.049c.454.101.78.291.979.568.202.277.303.646.303 1.106 0 .652-.236 1.161-.709 1.526-.47.366-1.109.548-1.918.548h-2.677v-7.153zm1.517 2.833h.881c.411 0 .708-.064.89-.191.186-.127.279-.338.279-.631 0-.274-.101-.47-.303-.587-.199-.121-.515-.181-.949-.181h-.798v1.59zm0 1.203v1.865h.989c.417 0 .725-.08.924-.24.199-.16.299-.405.299-.734 0-.594-.424-.891-1.272-.891h-.94zm8.152-2.456c.202 0 .37.015.504.044l-.113 1.4a1.686 1.686 0 00-.44-.049c-.476 0-.848.122-1.116.367-.264.244-.396.587-.396 1.027v2.784h-1.492v-5.47h1.13l.22.92h.074c.169-.307.398-.553.685-.739.29-.189.605-.284.944-.284zm4.971 5.573l-.288-.743h-.039c-.252.316-.511.536-.778.66-.265.121-.61.181-1.038.181-.525 0-.939-.15-1.243-.45-.3-.3-.45-.727-.45-1.282 0-.581.202-1.008.607-1.282.408-.277 1.021-.431 1.84-.46l.949-.029v-.24c0-.555-.284-.832-.851-.832-.438 0-.951.132-1.542.397l-.494-1.008a4.443 4.443 0 012.094-.495c.734 0 1.297.16 1.688.48.392.32.588.806.588 1.458v3.645h-1.043zm-.44-2.534l-.577.019c-.434.013-.757.092-.969.235-.212.144-.318.362-.318.656 0 .421.241.631.724.631.346 0 .621-.099.827-.298.209-.199.313-.464.313-.793v-.45zm6.831 2.534h-4.321v-.88l2.535-3.45h-2.383v-1.14h4.081v.969l-2.467 3.361h2.555v1.14zm1.022-6.884c0-.486.271-.729.813-.729.541 0 .812.243.812.729 0 .231-.069.412-.206.543-.133.127-.336.191-.606.191-.542 0-.813-.245-.813-.734zm1.556 6.884h-1.492v-5.47h1.492v5.47zm3.063 0h-1.492v-7.613h1.492v7.613z" fill="#fff"/></svg>