<svg width="30" height="30" fill="none" xmlns="http://www.w3.org/2000/svg"><path d="M26.25 30H3.75C1.65 30 0 28.35 0 26.25V3.75C0 1.65 1.65 0 3.75 0h22.5C28.35 0 30 1.65 30 3.75v22.5c0 2.1-1.65 3.75-3.75 3.75z" fill="#395597"/><path d="M16.2 22.95v-7.275h2.4l.375-2.85H16.2v-1.8c0-.825.225-1.35 1.425-1.35h1.5V7.2c-.225 0-1.125-.075-2.175-.075-2.175 0-3.6 1.35-3.6 3.75v2.1h-2.475v2.85h2.475V23.1h2.85v-.15z" fill="#fff"/><path d="M26.25 30H3.75C1.65 30 0 28.35 0 26.25V3.75C0 1.65 1.65 0 3.75 0h22.5C28.35 0 30 1.65 30 3.75v22.5c0 2.1-1.65 3.75-3.75 3.75z" fill="#395597"/><path d="M16.2 22.95v-7.275h2.4l.375-2.85H16.2v-1.8c0-.825.225-1.35 1.425-1.35h1.5V7.2c-.225 0-1.125-.075-2.175-.075-2.175 0-3.6 1.35-3.6 3.75v2.1h-2.475v2.85h2.475V23.1h2.85v-.15z" fill="#fff"/></svg>