<svg width="70" height="71" fill="none" xmlns="http://www.w3.org/2000/svg"><rect y=".563" width="70" height="70" rx="10" fill="#fff"/><g clip-path="url(#clip0)" fill-rule="evenodd" clip-rule="evenodd"><path d="M54 35.478c0-10.447-8.507-18.916-19-18.916s-19 8.47-19 18.916c0 9.442 6.948 17.267 16.031 18.686V40.946h-4.824v-5.468h4.824v-4.167c0-4.74 2.837-7.36 7.177-7.36 2.079 0 4.253.37 4.253.37v4.655h-2.396c-2.36 0-3.096 1.458-3.096 2.954v3.548h5.27l-.843 5.468h-4.427v13.218C47.052 52.745 54 44.92 54 35.478z" fill="#1877F2"/><path d="M42.262 40.668l.83-5.487h-5.197V31.62c0-1.501.726-2.965 3.054-2.965h2.364v-4.671s-2.145-.371-4.195-.371c-4.28 0-7.079 2.628-7.079 7.386v4.182h-4.758v5.487h4.758v13.266a18.648 18.648 0 005.856 0V40.668h4.367z" fill="#fff"/></g><defs><clipPath id="clip0"><path fill="#fff" transform="translate(16 16.563)" d="M0 0h38v38H0z"/></clipPath></defs></svg>