<svg width="424" height="206" fill="none" xmlns="http://www.w3.org/2000/svg"><path d="M424 1.563H0v2h424v-2zm0 40H0v2h424v-2zm0 40H0v2h424v-2zm0 39.999H0v4h424v-4zm0 42H0v2h424v-2zm0 40H0v2h424v-2z" fill="#EEE"/><path d="M322 121.562h-52v69h52v-69z" fill="#1278A1"/><path d="M322 94.563h-52v26.999h52v-27z" fill="#5DD5F6"/><path d="M322 .563h-52v94h52v-94z" fill="#E0F8FF"/><path d="M406 121.562h-52v35h52v-35z" fill="#1278A1"/><path d="M406 94.563h-52v26.999h52v-27z" fill="#5DD5F6"/><path d="M406 15.563h-52v93.999h52v-94z" fill="#E0F8FF"/><path d="M238 121.562h-52v51h52v-51z" fill="#1278A1"/><path d="M238 94.563h-52v26.999h52v-27z" fill="#5DD5F6"/><path d="M238 15.563h-52v93.999h52v-94z" fill="#E0F8FF"/><path d="M154 121.562h-52v35h52v-35z" fill="#1278A1"/><path d="M154 94.563h-52v26.999h52v-27z" fill="#5DD5F6"/><path d="M154 11.563h-52v93.999h52v-94z" fill="#E0F8FF"/><path d="M70 121.562H18v72h52v-72z" fill="#1278A1"/><path d="M70 94.563H18v26.999h52v-27z" fill="#5DD5F6"/><path d="M70 .563H18v94h52v-94z" fill="#E0F8FF"/></svg>