<svg width="153" height="156" fill="none" xmlns="http://www.w3.org/2000/svg"><path d="M77 .563H0v34h77v-34z" fill="#B0B8FC"/><path d="M153 .563H77v34h76v-34z" fill="#707EFA"/><path d="M77 34.563H0v34h77v-34z" fill="#EDF3FD"/><path d="M153 34.563H77v34h76v-34z" fill="#B0B8FC"/><path d="M77 68.563H0v34.999h77v-35z" fill="#EDF3FD"/><path d="M153 68.563H77v34.999h76v-35z" fill="#4B57C5"/><path d="M77 103.562H0v34h77v-34z" fill="#343C8D"/><path d="M25 151.562H0v4h25v-4z" fill="#EDF3FD"/><path d="M51 151.562H25v4h26v-4z" fill="#B0B8FC"/><path d="M76 151.562H51v4h25v-4z" fill="#707EFA"/><path d="M102 151.562H76v4h26v-4z" fill="#4B57C5"/><path d="M127 151.562h-25v4h25v-4z" fill="#343C8D"/><path d="M153 151.562h-26v4h26v-4zm0-48H77v34h76v-34z" fill="#21264F"/></svg>