<svg width="306" height="115" fill="none" xmlns="http://www.w3.org/2000/svg"><path d="M305.712.492H.288v1.44h305.424V.492zm0 37.446H.288v1.44h305.424v-1.44zm0 37.448H.288v1.44h305.424v-1.44zm0 37.447H.288v1.44h305.424v-1.44z" fill="#EEE"/><path d="M47.11 69.624H21.178v44.649H47.11V69.625z" fill="#B0B8FC"/><path d="M47.11 75.386h25.932v38.887H47.11V75.386z" fill="#4B57C5"/><path d="M117.703 35.058H91.771v79.215h25.932V35.058z" fill="#B0B8FC"/><path d="M117.703 48.74h25.933v65.533h-25.933V48.741z" fill="#4B57C5"/><path d="M188.297 26.811h-25.933v87.462h25.933V26.811z" fill="#B0B8FC"/><path d="M188.297 48.74h25.932v65.533h-25.932V48.741z" fill="#4B57C5"/><path d="M258.89 12.734h-25.932v101.539h25.932V12.733z" fill="#B0B8FC"/><path d="M258.89 35.058h25.932v79.215H258.89V35.058z" fill="#4B57C5"/></svg>