<svg width="424" height="81" fill="none" xmlns="http://www.w3.org/2000/svg"><path d="M424 .563H0v2h424v-2zm0 26H0v2h424v-2zm0 26H0v2h424v-2zm0 26H0v2h424v-2z" fill="#EEE"/><path d="M44 5.563H18v73h26v-73z" fill="#FAE5EF"/><path d="M44 41.563h26v37H44v-37z" fill="#FDA1B9"/><path d="M128 28.563h-26v50h26v-50z" fill="#FAE5EF"/><path d="M128 62.563h26v16h-26v-16z" fill="#FDA1B9"/><path d="M212 16.563h-26v62h26v-62z" fill="#FAE5EF"/><path d="M212 70.563h26v8h-26v-8z" fill="#FDA1B9"/><path d="M296 41.563h-26v37h26v-37z" fill="#FAE5EF"/><path d="M296 28.563h26v50h-26v-50z" fill="#FDA1B9"/><path d="M380 65.563h-26v13h26v-13z" fill="#FAE5EF"/><path d="M380 75.713h26v2.85h-26v-2.85z" fill="#FDA1B9"/></svg>