<svg width="450" height="200" fill="none" xmlns="http://www.w3.org/2000/svg"><path d="M0 35h450v1.5H0V35zm0 39.5h450V76H0v-1.5zM0 114h450v1.499H0V114zm0 39.499h450v1.5H0v-1.5z" fill="#EDF3FD"/><path d="M89.5 19v151m90-151v151m90-151v151m90-151v151" stroke="#EDF3FD"/><path d="M92 160s13.501-1.157 25.143-5.394c22.154-8.063 18.896-11.477 43.143-10.606 17.214.619 7.545 5.318 43.143 8 21.511 1.621 21.551-10.16 43.142-10 28.114.208 15.465-12.72 43.143-17 17.169-2.655 25.909-15.686 43.143-18C354.196 104.136 359 33.5 359 33.5" stroke="#4A56C5" stroke-width="5" stroke-linecap="round"/><path d="M95.341 191.989c0 1.176-.21 2.163-.629 2.96a3.806 3.806 0 01-1.832 1.744l2.406 2.686h-2.714l-1.832-2.242h-.157c-1.531 0-2.707-.444-3.527-1.333-.821-.889-1.231-2.165-1.231-3.828 0-1.664.41-2.933 1.231-3.808.825-.879 2.005-1.319 3.541-1.319 1.535 0 2.709.442 3.52 1.326.816.884 1.224 2.156 1.224 3.814zm-7.294 0c0 1.117.212 1.958.636 2.523.423.565 1.057.847 1.9.847 1.691 0 2.536-1.123 2.536-3.37 0-2.251-.841-3.377-2.522-3.377-.843 0-1.479.285-1.908.855-.428.565-.642 1.406-.642 2.522zM101.938 197h-2.113v-5.783l.021-.95.034-1.039c-.351.351-.595.581-.732.69l-1.148.923-1.019-1.272 3.22-2.563h1.737V197zm80.403-5.011c0 1.176-.21 2.163-.629 2.96a3.806 3.806 0 01-1.832 1.744l2.406 2.686h-2.714l-1.832-2.242h-.157c-1.531 0-2.707-.444-3.527-1.333-.821-.889-1.231-2.165-1.231-3.828 0-1.664.41-2.933 1.231-3.808.825-.879 2.005-1.319 3.541-1.319 1.535 0 2.709.442 3.52 1.326.816.884 1.224 2.156 1.224 3.814zm-7.294 0c0 1.117.212 1.958.636 2.523.423.565 1.057.847 1.9.847 1.691 0 2.536-1.123 2.536-3.37 0-2.251-.841-3.377-2.522-3.377-.843 0-1.479.285-1.908.855-.428.565-.642 1.406-.642 2.522zM190.701 197h-6.986v-1.47l2.509-2.536c.742-.761 1.228-1.287 1.456-1.579.228-.296.392-.57.492-.82.1-.251.15-.511.15-.779 0-.401-.111-.7-.335-.896-.218-.196-.512-.294-.882-.294-.387 0-.763.089-1.127.267-.365.177-.746.43-1.142.758l-1.148-1.36c.492-.419.9-.715 1.223-.889a4.396 4.396 0 011.06-.396 5.29 5.29 0 011.285-.144c.624 0 1.176.114 1.654.342.479.228.85.547 1.114.957.265.41.397.88.397 1.408 0 .461-.082.894-.246 1.299a4.88 4.88 0 01-.752 1.238c-.337.423-.934 1.027-1.791 1.811l-1.285 1.21v.096h4.354V197zm78.64-5.011c0 1.176-.21 2.163-.629 2.96a3.806 3.806 0 01-1.832 1.744l2.406 2.686h-2.714l-1.832-2.242h-.157c-1.531 0-2.707-.444-3.527-1.333-.821-.889-1.231-2.165-1.231-3.828 0-1.664.41-2.933 1.231-3.808.825-.879 2.005-1.319 3.541-1.319 1.535 0 2.709.442 3.52 1.326.816.884 1.224 2.156 1.224 3.814zm-7.294 0c0 1.117.212 1.958.636 2.523.423.565 1.057.847 1.9.847 1.691 0 2.536-1.123 2.536-3.37 0-2.251-.841-3.377-2.522-3.377-.843 0-1.479.285-1.908.855-.428.565-.642 1.406-.642 2.522zm15.265-2.748c0 .625-.19 1.156-.568 1.593-.378.438-.909.738-1.593.902v.041c.807.101 1.418.347 1.832.739.415.387.622.911.622 1.572 0 .962-.348 1.711-1.045 2.249-.698.533-1.693.8-2.988.8-1.084 0-2.046-.18-2.884-.54v-1.798c.387.196.813.355 1.278.478.465.124.925.185 1.381.185.697 0 1.212-.118 1.545-.355.332-.237.499-.618.499-1.142 0-.469-.192-.802-.575-.998-.382-.196-.993-.294-1.832-.294h-.758v-1.62h.772c.775 0 1.34-.1 1.695-.301.36-.205.54-.554.54-1.046 0-.756-.474-1.135-1.421-1.135a3.29 3.29 0 00-1.005.164c-.338.11-.714.299-1.128.568l-.978-1.456c.912-.656 1.999-.985 3.261-.985 1.034 0 1.85.21 2.447.629.602.42.903 1.003.903 1.75zm79.029 2.748c0 1.176-.21 2.163-.629 2.96a3.806 3.806 0 01-1.832 1.744l2.406 2.686h-2.714l-1.832-2.242h-.157c-1.531 0-2.707-.444-3.527-1.333-.821-.889-1.231-2.165-1.231-3.828 0-1.664.41-2.933 1.231-3.808.825-.879 2.005-1.319 3.541-1.319 1.535 0 2.709.442 3.52 1.326.816.884 1.224 2.156 1.224 3.814zm-7.294 0c0 1.117.212 1.958.636 2.523.423.565 1.057.847 1.9.847 1.691 0 2.536-1.123 2.536-3.37 0-2.251-.841-3.377-2.522-3.377-.843 0-1.479.285-1.908.855-.428.565-.642 1.406-.642 2.522zm15.88 2.94h-1.203V197h-2.065v-2.071h-4.265v-1.47l4.381-6.453h1.949v6.282h1.203v1.641zm-3.268-1.641v-1.695c0-.283.012-.693.034-1.231.023-.537.041-.85.055-.936h-.055a7.574 7.574 0 01-.608 1.094l-1.832 2.768h2.406z" fill="#000"/><path d="M169.563 131.713h-2.079v-1.176h2.079v-2.095h1.176v2.095h2.079v1.176h-2.079v2.068h-1.176v-2.068zM177.84 135h-1.66v-4.544l.016-.746.027-.817a8.627 8.627 0 01-.575.543l-.902.725-.8-.999 2.53-2.014h1.364V135zm7.638-4.501c0 1.547-.326 2.702-.978 3.465-.652.762-1.638 1.144-2.959 1.144-.466 0-.819-.026-1.059-.076V133.7c.301.076.616.113.946.113.555 0 1.011-.08 1.369-.242a1.74 1.74 0 00.822-.768c.19-.351.299-.832.328-1.444h-.065c-.207.336-.447.572-.719.709-.273.136-.613.204-1.021.204-.684 0-1.223-.219-1.617-.656-.393-.44-.59-1.051-.59-1.831 0-.842.238-1.506.714-1.993.48-.49 1.131-.736 1.955-.736.58 0 1.087.136 1.52.408.437.273.772.668 1.004 1.187.233.516.35 1.132.35 1.848zm-2.842-2.111c-.344 0-.612.118-.805.355-.194.236-.29.576-.29 1.02 0 .38.087.681.263.903.175.222.442.333.8.333.337 0 .625-.11.865-.328.24-.222.36-.476.36-.763 0-.426-.113-.786-.339-1.079-.222-.294-.506-.441-.854-.441zm4.92 1.112c0 .455.04.795.118 1.021.083.222.213.333.392.333.344 0 .516-.452.516-1.354 0-.895-.172-1.343-.516-1.343-.179 0-.309.111-.392.333-.078.219-.118.555-.118 1.01zm2.38-.011c0 .824-.16 1.443-.478 1.859-.319.412-.786.617-1.402.617-.591 0-1.048-.211-1.37-.633-.322-.426-.483-1.041-.483-1.843 0-1.636.617-2.454 1.853-2.454.605 0 1.069.213 1.391.639.326.422.489 1.028.489 1.815zm3.695-2.341L189.275 135h-1.289l4.356-7.852h1.289zm-.575 5.489c0 .455.04.795.118 1.02.083.222.213.333.392.333.344 0 .516-.451.516-1.353 0-.895-.172-1.343-.516-1.343-.179 0-.309.111-.392.333-.078.218-.118.555-.118 1.01zm2.38-.011c0 .82-.16 1.438-.478 1.853-.319.412-.786.618-1.402.618-.591 0-1.048-.211-1.37-.634-.322-.426-.483-1.038-.483-1.837 0-1.636.617-2.454 1.853-2.454.605 0 1.069.213 1.391.639.326.422.489 1.027.489 1.815zM336.871 9.725h-3.969V7.479h3.969V3.48h2.245v3.999h3.968v2.246h-3.968v3.947h-2.245V9.725zm7.864-.093c0-2.967.626-5.175 1.877-6.624C347.87 1.56 349.75.834 352.251.834c.855 0 1.525.052 2.01.154v2.533a8.21 8.21 0 00-1.804-.205c-1.087 0-1.976.164-2.666.492a3.315 3.315 0 00-1.539 1.456c-.341.643-.543 1.555-.605 2.738h.134c.677-1.162 1.76-1.743 3.25-1.743 1.34 0 2.389.42 3.148 1.261.759.84 1.138 2.003 1.138 3.486 0 1.6-.451 2.868-1.353 3.804-.902.93-2.153 1.395-3.753 1.395-1.107 0-2.075-.256-2.902-.769-.82-.513-1.456-1.261-1.907-2.246-.444-.984-.667-2.17-.667-3.558zm5.414 4.04c.677 0 1.197-.225 1.559-.676.362-.458.543-1.108.543-1.949 0-.731-.17-1.305-.512-1.722-.335-.424-.844-.636-1.528-.636-.643 0-1.193.208-1.651.625-.451.417-.677.903-.677 1.457 0 .813.212 1.5.636 2.06.431.561.974.841 1.63.841zm17.083-5.168c0 2.619-.43 4.556-1.292 5.814-.854 1.258-2.173 1.887-3.958 1.887-1.729 0-3.035-.65-3.917-1.948-.875-1.299-1.312-3.216-1.312-5.753 0-2.645.427-4.593 1.282-5.844.854-1.258 2.17-1.887 3.947-1.887 1.73 0 3.036.656 3.917 1.969.889 1.312 1.333 3.233 1.333 5.762zm-7.331 0c0 1.84.157 3.159.472 3.959.321.793.857 1.189 1.609 1.189.739 0 1.272-.403 1.6-1.21.328-.807.492-2.12.492-3.938 0-1.838-.167-3.158-.502-3.958-.328-.806-.858-1.21-1.59-1.21-.745 0-1.278.404-1.599 1.21-.321.8-.482 2.12-.482 3.958zm11.32-3.004c0 .868.075 1.518.226 1.948.157.424.407.636.748.636.657 0 .985-.861.985-2.584 0-1.709-.328-2.564-.985-2.564-.341 0-.591.212-.748.636-.151.417-.226 1.06-.226 1.928zm4.543-.02c0 1.572-.305 2.754-.913 3.547-.608.786-1.5 1.18-2.676 1.18-1.128 0-2-.404-2.615-1.21-.615-.814-.923-1.986-.923-3.518 0-3.124 1.179-4.686 3.538-4.686 1.155 0 2.04.407 2.656 1.22.622.807.933 1.963.933 3.466zm7.054-4.471L374.502 16h-2.46l8.315-14.991h2.461zm-1.097 10.48c0 .867.075 1.517.226 1.947.157.424.407.636.748.636.657 0 .985-.861.985-2.584 0-1.709-.328-2.563-.985-2.563-.341 0-.591.212-.748.635-.151.417-.226 1.06-.226 1.928zm4.543-.021c0 1.565-.305 2.744-.913 3.537-.608.786-1.5 1.18-2.676 1.18-1.128 0-2-.404-2.615-1.21-.615-.814-.923-1.983-.923-3.507 0-3.124 1.179-4.686 3.538-4.686 1.155 0 2.04.406 2.656 1.22.622.807.933 1.962.933 3.466zM252.563 112.713h-2.079v-1.176h2.079v-2.095h1.176v2.095h2.079v1.176h-2.079v2.068h-1.176v-2.068zm9.663 3.287h-5.49v-1.155l1.972-1.992c.583-.598.965-1.012 1.144-1.241.179-.233.308-.448.386-.645a1.63 1.63 0 00.118-.612c0-.315-.087-.55-.263-.704-.172-.153-.403-.23-.693-.23-.304 0-.599.069-.886.209-.286.14-.585.338-.897.596l-.902-1.069c.387-.329.707-.562.961-.698.255-.136.532-.24.833-.311a4.128 4.128 0 011.01-.113c.49 0 .923.089 1.299.268.376.179.668.43.876.752.208.323.311.691.311 1.107 0 .361-.064.702-.193 1.02a3.802 3.802 0 01-.591.972c-.265.333-.734.808-1.407 1.424l-1.01.95v.076h3.422V116zm4.898 0h-1.66v-4.544l.016-.746.027-.817a8.694 8.694 0 01-.574.543l-.903.725-.8-.999 2.53-2.014h1.364V116zm3.432-5.5c0 .455.04.795.118 1.021.083.222.213.333.392.333.344 0 .516-.452.516-1.354 0-.895-.172-1.343-.516-1.343-.179 0-.309.111-.392.333-.078.219-.118.555-.118 1.01zm2.38-.011c0 .824-.16 1.443-.478 1.859-.319.412-.786.617-1.402.617-.591 0-1.048-.211-1.37-.633-.322-.426-.483-1.041-.483-1.843 0-1.636.617-2.454 1.853-2.454.605 0 1.069.213 1.391.639.326.422.489 1.028.489 1.815zm3.695-2.341L272.275 116h-1.289l4.356-7.852h1.289zm-.575 5.489c0 .455.04.795.118 1.02.083.222.213.333.392.333.344 0 .516-.451.516-1.353 0-.895-.172-1.343-.516-1.343-.179 0-.309.111-.392.333-.078.218-.118.555-.118 1.01zm2.38-.011c0 .82-.16 1.438-.478 1.853-.319.412-.786.618-1.402.618-.591 0-1.048-.211-1.37-.634-.322-.426-.483-1.038-.483-1.837 0-1.636.617-2.454 1.853-2.454.605 0 1.069.213 1.391.639.326.422.489 1.027.489 1.815z" fill="#34AD78"/><path d="M91 164a4 4 0 100-8 4 4 0 000 8zm88-11a4 4 0 100-8 4 4 0 000 8zm90-15a4 4 0 100-8 4 4 0 000 8zm90-103a4 4 0 100-8 4 4 0 000 8z" fill="#4B57C5"/><path d="M359 37a6 6 0 100-12 6 6 0 000 12zm-90 103a6 6 0 100-12 6 6 0 000 12zm-90 15a6 6 0 100-12 6 6 0 000 12zm-88 11a6 6 0 100-12 6 6 0 000 12z" fill="#4B57C5" fill-opacity=".4"/></svg>