<svg width="30" height="30" fill="none" xmlns="http://www.w3.org/2000/svg"><path d="M26.25 30H3.75C1.65 30 0 28.35 0 26.25V3.75C0 1.65 1.65 0 3.75 0h22.5C28.35 0 30 1.65 30 3.75v22.5c0 2.1-1.65 3.75-3.75 3.75z" fill="#D73676"/><path d="M15 7.95c2.325 0 2.55 0 3.45.075.825.075 1.275.15 1.575.3.375.15.675.375.975.675.3.3.525.6.675.975.15.3.225.75.3 1.575.075.9.075 1.2.075 3.45s0 2.55-.075 3.45c-.075.825-.15 1.275-.3 1.575-.15.375-.375.675-.675.975-.3.3-.6.525-.975.675-.3.15-.75.225-1.575.3-.9.075-1.2.075-3.45.075s-2.55 0-3.45-.075c-.825-.075-1.275-.15-1.575-.3C9.6 21.525 9.3 21.3 9 21c-.3-.3-.525-.6-.675-.975-.15-.3-.225-.75-.3-1.575-.075-.9-.075-1.2-.075-3.45s0-2.55.075-3.45c.075-.825.15-1.275.3-1.575C8.475 9.6 8.7 9.3 9 9c.3-.3.6-.525.975-.675.3-.15.75-.225 1.575-.3.9-.075 1.125-.075 3.45-.075zm0-1.575c-2.325 0-2.625 0-3.525.075-.9.075-1.575.225-2.1.375-.6.225-1.05.525-1.5.975-.45.45-.75.975-.975 1.5-.225.525-.375 1.2-.375 2.1-.075.9-.075 1.2-.075 3.525s0 2.625.075 3.525c.075.9.225 1.575.375 2.1.225.6.525 1.05.975 1.5.45.45.975.75 1.5.975.525.225 1.2.375 2.1.375.9.075 1.2.075 3.525.075s2.625 0 3.525-.075c.9-.075 1.575-.225 2.1-.375.6-.225 1.05-.525 1.5-.975.45-.45.75-.975.975-1.5.225-.525.375-1.2.375-2.1.075-.9.075-1.2.075-3.525s0-2.625-.075-3.525c-.075-.9-.225-1.575-.375-2.1a3.996 3.996 0 00-.975-1.5c-.45-.45-.975-.75-1.5-.975-.525-.225-1.2-.375-2.1-.375-.9-.075-1.2-.075-3.525-.075z" fill="#fff"/><path d="M15 10.575A4.386 4.386 0 0010.575 15 4.386 4.386 0 0015 19.425 4.386 4.386 0 0019.425 15 4.386 4.386 0 0015 10.575zm0 7.275A2.849 2.849 0 0112.15 15 2.849 2.849 0 0115 12.15 2.849 2.849 0 0117.85 15 2.849 2.849 0 0115 17.85zm4.575-6.375a1.05 1.05 0 100-2.1 1.05 1.05 0 000 2.1z" fill="#fff"/><path d="M26.25 30H3.75C1.65 30 0 28.35 0 26.25V3.75C0 1.65 1.65 0 3.75 0h22.5C28.35 0 30 1.65 30 3.75v22.5c0 2.1-1.65 3.75-3.75 3.75z" fill="#D73676"/><path d="M15 7.95c2.325 0 2.55 0 3.45.075.825.075 1.275.15 1.575.3.375.15.675.375.975.675.3.3.525.6.675.975.15.3.225.75.3 1.575.075.9.075 1.2.075 3.45s0 2.55-.075 3.45c-.075.825-.15 1.275-.3 1.575-.15.375-.375.675-.675.975-.3.3-.6.525-.975.675-.3.15-.75.225-1.575.3-.9.075-1.2.075-3.45.075s-2.55 0-3.45-.075c-.825-.075-1.275-.15-1.575-.3C9.6 21.525 9.3 21.3 9 21c-.3-.3-.525-.6-.675-.975-.15-.3-.225-.75-.3-1.575-.075-.9-.075-1.2-.075-3.45s0-2.55.075-3.45c.075-.825.15-1.275.3-1.575C8.475 9.6 8.7 9.3 9 9c.3-.3.6-.525.975-.675.3-.15.75-.225 1.575-.3.9-.075 1.125-.075 3.45-.075zm0-1.575c-2.325 0-2.625 0-3.525.075-.9.075-1.575.225-2.1.375-.6.225-1.05.525-1.5.975-.45.45-.75.975-.975 1.5-.225.525-.375 1.2-.375 2.1-.075.9-.075 1.2-.075 3.525s0 2.625.075 3.525c.075.9.225 1.575.375 2.1.225.6.525 1.05.975 1.5.45.45.975.75 1.5.975.525.225 1.2.375 2.1.375.9.075 1.2.075 3.525.075s2.625 0 3.525-.075c.9-.075 1.575-.225 2.1-.375.6-.225 1.05-.525 1.5-.975.45-.45.75-.975.975-1.5.225-.525.375-1.2.375-2.1.075-.9.075-1.2.075-3.525s0-2.625-.075-3.525c-.075-.9-.225-1.575-.375-2.1a3.996 3.996 0 00-.975-1.5c-.45-.45-.975-.75-1.5-.975-.525-.225-1.2-.375-2.1-.375-.9-.075-1.2-.075-3.525-.075z" fill="#fff"/><path d="M15 10.575A4.386 4.386 0 0010.575 15 4.386 4.386 0 0015 19.425 4.386 4.386 0 0019.425 15 4.386 4.386 0 0015 10.575zm0 7.275A2.849 2.849 0 0112.15 15 2.849 2.849 0 0115 12.15 2.849 2.849 0 0117.85 15 2.849 2.849 0 0115 17.85zm4.575-6.375a1.05 1.05 0 100-2.1 1.05 1.05 0 000 2.1z" fill="#fff"/></svg>