<svg width="70" height="71" fill="none" xmlns="http://www.w3.org/2000/svg"><rect y=".563" width="70" height="70" rx="10" fill="#fff"/><path d="M41.73 22.302v26.125c0 2.923 2.016 4.552 4.155 4.552 1.98 0 4.157-1.385 4.157-4.552V22.5c0-2.68-1.98-4.354-4.157-4.354s-4.156 1.846-4.156 4.156z" fill="#F9AB00"/><path d="M30.844 35.563v12.864c0 2.923 2.017 4.552 4.156 4.552 1.98 0 4.156-1.385 4.156-4.552V35.76c0-2.68-1.979-4.354-4.156-4.354-2.177 0-4.156 1.847-4.156 4.157zM24.115 52.98a4.156 4.156 0 100-8.313 4.156 4.156 0 000 8.312z" fill="#E37400"/></svg>