<svg width="100" height="32" fill="none" xmlns="http://www.w3.org/2000/svg"><path d="M98.842 11.52c.449.507 1.158.053 1.158-.48V1.867c0-.534-.378-.96-.85-.96h-8.131c-.473 0-.898.773-.45 1.28l8.273 9.333z" fill="#EE3524"/><path d="M0 1.733c0-.4.284-.72.662-.72h3.592c.355 0 .662.32.662.72v8.907c0 .4.142.453.331.107l4.798-9.094c.189-.346.614-.64.993-.64h3.64c.354 0 .496.267.283.614L10.092 9.52c-.213.32-.26.907-.118 1.28l5.554 14.32c.142.373-.047.667-.402.667h-3.758c-.354 0-.756-.294-.898-.667L6.996 15.04c-.118-.373-.402-.4-.615-.08l-1.11 1.787c-.213.32-.379.933-.379 1.333v6.96c0 .4-.307.72-.661.72H.66c-.354 0-.661-.32-.661-.72V1.733zm16.426 0c0-.4.308-.72.662-.72h3.285c.355 0 .662.32.662.72V25.04c0 .4-.307.72-.662.72h-3.285c-.354 0-.662-.32-.662-.72V1.733zM27.606 5.2c0 .4-.308.72-.662.72h-3.333c-.354 0-.661-.32-.661-.72V1.6c0-.4.307-.72.661-.72h3.333c.355 0 .662.32.662.72v3.6zm-4.633 2.987c0-.4.308-.72.662-.72h3.285c.355 0 .662.32.662.72v16.88c0 .4-.284.72-.662.72h-3.285c-.355 0-.662-.32-.662-.72V8.187zm6.57 0c0-.4.308-.72.663-.72h2.954c.355 0 .662.32.662.72v1.28c0 .4.307.453.402.16.354-.934 1.583-2.4 3.332-2.4 1.513 0 2.765.746 3.758 2.24.993 1.493 1.513 3.786 1.513 6.853 0 3.227-.497 5.653-1.466 7.28-.969 1.627-2.363 2.453-4.136 2.453-1.276 0-2.316-.533-3.143-1.626v6.853c0 .4-.307.72-.662.72h-3.214c-.355 0-.662-.32-.662-.72V8.187zm4.539 9.333c0 .4.023 1.067.023 1.467 0 0 .095 2.16.355 2.693.26.533.78.773 1.56.773.685 0 1.205-.346 1.56-1.04.33-.693.496-2.4.496-5.093 0-2.24-.142-3.76-.449-4.56-.284-.8-.78-1.2-1.489-1.2-.567 0-1.064.24-1.465.747-.402.506-.615 1.653-.615 3.493l.024 2.72zM49.586 7.44v17.6c0 .4-.307.72-.661.72h-3.097c-.354 0-.661-.32-.661-.72l.023-18.32s.095-2.427.355-3.333c.236-.907.756-1.68 1.56-2.374C47.908.347 48.995 0 50.366 0c.591 0 1.182.053 1.75.16.354.053.59.32.59.693v2.614c0 .4-.283.693-.662.666h-.378c-.874 0-1.441.214-1.701.614-.26.426-.379 1.333-.379 2.693zm16.238 9.147c0 6.373-2.222 9.546-6.689 9.546-4.467 0-6.712-3.173-6.712-9.546 0-6.347 2.245-9.52 6.712-9.52s6.689 3.173 6.689 9.52zm-4.751.026c0-2.346-.142-3.92-.425-4.746-.284-.827-.804-1.227-1.513-1.227-.685 0-1.205.4-1.49 1.173-.306.774-.448 2.374-.448 4.8 0 2.24.118 3.787.402 4.667.26.88.78 1.307 1.56 1.307.756 0 1.252-.427 1.536-1.307.236-.853.378-2.427.378-4.667zm6.287-14.88c0-.4.284-.72.662-.72h3.285c.355 0 .662.32.662.72V25.04c0 .4-.284.72-.662.72h-3.285c-.355 0-.662-.32-.662-.72V1.733zM78.563 5.2c0 .4-.307.72-.662.72h-3.356c-.355 0-.662-.32-.662-.72V1.6c0-.4.284-.72.662-.72h3.333c.354 0 .661.32.661.72l.024 3.6zM73.93 8.187c0-.4.284-.72.662-.72h3.286c.354 0 .661.32.661.72v16.88c0 .4-.307.72-.661.72h-3.286c-.354 0-.662-.32-.662-.72V8.187zm19.547 8.4c0 6.373-2.222 9.546-6.689 9.546-4.467 0-6.712-3.173-6.712-9.546 0-6.347 2.245-9.52 6.712-9.52 4.443 0 6.689 3.173 6.689 9.52zm-4.75.026c0-2.346-.143-3.92-.426-4.746-.284-.827-.78-1.227-1.513-1.227-.685 0-1.205.4-1.513 1.173-.307.774-.449 2.374-.449 4.8 0 2.24.119 3.787.402 4.667.26.88.78 1.307 1.56 1.307.756 0 1.253-.427 1.536-1.307.26-.853.402-2.427.402-4.667z" fill="#000"/><path d="M52.47 10.747c0 .4-.307.72-.662.72h-7.87c-.355 0-.662-.32-.662-.72v-2.56c0-.4.307-.72.662-.72h7.87c.355 0 .662.32.662.72v2.56z" fill="#000"/></svg>